<svg xmlns="http://www.w3.org/2000/svg" width="256" height="256" viewBox="0 0 100 100"><rect width="100" height="100" rx="20" fill="#144d75"></rect><path fill="#fff" d="M25.20 23.36L32.42 23.36L32.42 33.59L40.31 33.59L40.31 39.18L32.42 39.18L32.42 65.39Q32.42 67.93 33.48 69.20Q34.53 70.47 37.07 70.47L37.07 70.47Q38.32 70.47 40.51 70L40.51 70L40.51 75.86Q37.66 76.64 34.96 76.64L34.96 76.64Q30.12 76.64 27.66 73.71Q25.20 70.78 25.20 65.39L25.20 65.39L25.20 39.18L17.50 39.18L17.50 33.59L25.20 33.59L25.20 23.36ZM65.70 70.74L65.70 70.74Q69.57 70.74 72.46 68.40Q75.35 66.05 75.66 62.54L75.66 62.54L82.50 62.54Q82.30 66.17 80 69.45Q77.70 72.73 73.85 74.69Q70 76.64 65.70 76.64L65.70 76.64Q57.07 76.64 51.97 70.88Q46.88 65.12 46.88 55.12L46.88 55.12L46.88 53.91Q46.88 47.73 49.14 42.93Q51.41 38.13 55.64 35.47Q59.88 32.81 65.66 32.81L65.66 32.81Q72.77 32.81 77.48 37.07Q82.19 41.33 82.50 48.13L82.50 48.13L75.66 48.13Q75.35 44.02 72.56 41.39Q69.77 38.75 65.66 38.75L65.66 38.75Q60.16 38.75 57.13 42.71Q54.10 46.68 54.10 54.18L54.10 54.18L54.10 55.55Q54.10 62.85 57.11 66.80Q60.12 70.74 65.70 70.74Z"></path></svg>